<?xml version="1.0" encoding="iso-8859-1"?>
<!-- Generator: Adobe Illustrator 16.0.0, SVG Export Plug-In . SVG Version: 6.00 Build 0)  -->
<!DOCTYPE svg PUBLIC "-//W3C//DTD SVG 1.1//EN" "http://www.w3.org/Graphics/SVG/1.1/DTD/svg11.dtd">
<svg version="1.1" id="Capa_1" xmlns="http://www.w3.org/2000/svg" xmlns:xlink="http://www.w3.org/1999/xlink" x="0px" y="0px"
	 width="124.677px" height="124.677px" viewBox="0 0 124.677 124.677" style="enable-background:new 0 0 124.677 124.677;"
	 xml:space="preserve">
<g>
	<g>
		<polygon points="51.37,50.455 73.846,50.455 73.846,46.373 73.91,46.318 73.846,46.24 73.846,32.69 73.91,32.61 73.846,32.557 
			73.846,30.424 73.876,30.45 82.192,21.145 80.421,19.562 72.898,27.981 54.565,27.981 45.71,19.562 43.938,21.145 51.37,28.416 		
			"/>
		<circle cx="24.487" cy="14.171" r="12.57"/>
		<path d="M56.54,53.514c-8.146,0-11.16-4.721-15.152-12.496c-2.207-4.292-4.486-8.731-8.539-11.218
			c-0.21-0.128-0.432-0.222-0.653-0.315c-1.398-0.935-2.972-1.621-4.576-2.014l-3.132,3.152l-3.034-3.188
			c-0.012,0.002-0.021,0.002-0.032,0.006c-1.637,0.391-3.242,1.093-4.666,2.051c-0.218,0.092-0.435,0.182-0.643,0.308
			C9.943,33.586-8.835,45.104,4.932,70.41c0.884,1.627,2.56,2.549,4.29,2.549c0.787,0,1.588-0.19,2.329-0.594
			c0.258-0.141,0.496-0.305,0.718-0.482l0.002,45.427c0,3.185,2.582,5.766,5.767,5.766c3.188,0,5.768-2.581,5.768-5.769
			l-0.003-40.102c0.229,0.01,0.457,0.028,0.686,0.028c0.047,0,0.09-0.005,0.137-0.006l-0.003,40.079
			c0,3.188,2.583,5.768,5.768,5.768c3.185,0,5.767-2.58,5.767-5.768l0.003-46.441c0.754-1.4,1.195-2.984,1.195-4.723v-12.69
			c3.796,5.263,9.406,9.821,19.187,9.821c2.695,0,4.881-2.186,4.881-4.88C61.421,55.698,59.235,53.514,56.54,53.514z M11.622,46.768
			V61.8C8.959,55.256,9.485,50.482,11.622,46.768z M24.46,55.5l-3.03-4.148l3.03-20.263h0.058l3.032,20.263L24.518,55.5H24.46z"/>
		<path d="M100.188,26.741c6.94,0,12.566-5.628,12.566-12.57c0-6.94-5.626-12.569-12.566-12.569c-6.944,0-12.57,5.629-12.57,12.569
			C87.616,21.113,93.242,26.741,100.188,26.741z"/>
		<path d="M108.56,29.8c-0.205-0.126-0.423-0.216-0.641-0.308c-1.424-0.958-3.028-1.66-4.666-2.051
			c-0.012-0.004-0.021-0.004-0.032-0.006l-3.033,3.188l-3.133-3.152c-1.604,0.393-3.176,1.079-4.575,2.014
			c-0.223,0.094-0.443,0.187-0.655,0.315c-4.051,2.486-6.33,6.926-8.537,11.218c-3.992,7.775-7.006,12.496-15.152,12.496
			c-2.694,0-4.881,2.185-4.881,4.88c0,2.694,2.187,4.88,4.881,4.88c9.78,0,15.392-4.559,19.188-9.821v12.69
			c0,1.737,0.44,3.321,1.195,4.723l0.003,46.44c0,3.188,2.582,5.769,5.767,5.769s5.768-2.581,5.768-5.769l-0.003-40.078
			c0.048,0.001,0.091,0.006,0.138,0.006c0.229,0,0.457-0.02,0.686-0.029l-0.003,40.104c0,3.188,2.58,5.768,5.769,5.768
			c3.185,0,5.767-2.58,5.767-5.766l0.002-45.426c0.222,0.178,0.46,0.342,0.718,0.481c0.741,0.402,1.542,0.595,2.329,0.595
			c1.73,0,3.406-0.922,4.29-2.549C133.51,45.104,114.732,33.586,108.56,29.8z M100.156,55.5l-3.032-4.148l3.032-20.263h0.058
			l3.03,20.263l-3.03,4.148H100.156z M113.05,61.8V46.768C115.189,50.482,115.715,55.256,113.05,61.8z"/>
	</g>
</g>
<g>
</g>
<g>
</g>
<g>
</g>
<g>
</g>
<g>
</g>
<g>
</g>
<g>
</g>
<g>
</g>
<g>
</g>
<g>
</g>
<g>
</g>
<g>
</g>
<g>
</g>
<g>
</g>
<g>
</g>
</svg>
