<?xml version="1.0" encoding="iso-8859-1"?>
<!-- Generator: Adobe Illustrator 19.0.0, SVG Export Plug-In . SVG Version: 6.00 Build 0)  -->
<svg version="1.1" id="Layer_1" xmlns="http://www.w3.org/2000/svg" xmlns:xlink="http://www.w3.org/1999/xlink" x="0px" y="0px"
	 viewBox="0 0 503.607 503.607" style="enable-background:new 0 0 503.607 503.607;" xml:space="preserve">
<g>
	<g>
		<path d="M478.426,453.246h-8.393V25.18c0-13.883-11.298-25.18-25.18-25.18c-13.883,0-25.18,11.298-25.18,25.18v25.18h-25.18
			c0-13.883-11.298-25.18-25.18-25.18s-25.18,11.298-25.18,25.18h-16.787c0-13.883-11.298-25.18-25.18-25.18
			s-25.18,11.298-25.18,25.18h-16.787c0-13.883-11.298-25.18-25.18-25.18s-25.18,11.298-25.18,25.18h-33.574
			c0-13.883-11.298-25.18-25.18-25.18s-25.18,11.298-25.18,25.18H83.934V25.18C83.934,11.298,72.637,0,58.754,0
			s-25.18,11.298-25.18,25.18v428.066H25.18c-13.883,0-25.18,11.298-25.18,25.18v16.787c0,4.633,3.752,8.393,8.393,8.393h100.721
			c4.642,0,8.393-3.76,8.393-8.393v-16.787c0-13.883-11.298-25.18-25.18-25.18h-8.393v-58.754h25.18
			c0,13.883,11.298,25.18,25.18,25.18s25.18-11.298,25.18-25.18h33.574c0,13.883,11.298,25.18,25.18,25.18s25.18-11.298,25.18-25.18
			h41.967c0,13.883,11.298,25.18,25.18,25.18s25.18-11.298,25.18-25.18h16.787c0,13.883,11.298,25.18,25.18,25.18
			s25.18-11.298,25.18-25.18h16.787v58.754h-8.393c-13.883,0-25.18,11.298-25.18,25.18v16.787c0,4.633,3.752,8.393,8.393,8.393
			h100.721c4.642,0,8.393-3.76,8.393-8.393v-16.787C503.607,464.543,492.309,453.246,478.426,453.246z M419.672,377.705h-16.787
			c0-13.883-11.298-25.18-25.18-25.18s-25.18,11.298-25.18,25.18h-16.787c0-13.883-11.298-25.18-25.18-25.18
			s-25.18,11.298-25.18,25.18H243.41c0-13.883-11.298-25.18-25.18-25.18s-25.18,11.298-25.18,25.18h-33.574
			c0-13.883-11.298-25.18-25.18-25.18s-25.18,11.298-25.18,25.18h-25.18v-92.328h67.148c0,13.883,11.298,25.18,25.18,25.18
			c13.883,0,25.18-11.298,25.18-25.18h16.787c0,13.883,11.298,25.18,25.18,25.18c13.883,0,25.18-11.298,25.18-25.18h16.787
			c0,13.883,11.298,25.18,25.18,25.18s25.18-11.298,25.18-25.18h16.787c0,13.883,11.298,25.18,25.18,25.18s25.18-11.298,25.18-25.18
			h16.787V377.705z M419.672,268.59h-16.787c0-13.883-11.298-25.18-25.18-25.18s-25.18,11.298-25.18,25.18h-16.787
			c0-13.883-11.298-25.18-25.18-25.18s-25.18,11.298-25.18,25.18H268.59c0-13.883-11.298-25.18-25.18-25.18
			c-13.883,0-25.18,11.298-25.18,25.18h-16.787c0-13.883-11.298-25.18-25.18-25.18c-13.883,0-25.18,11.298-25.18,25.18H83.934
			v-92.328h16.787c0,13.883,11.298,25.18,25.18,25.18s25.18-11.298,25.18-25.18h16.787c0,13.883,11.298,25.18,25.18,25.18
			s25.18-11.298,25.18-25.18h16.787c0,13.883,11.298,25.18,25.18,25.18c13.883,0,25.18-11.298,25.18-25.18h16.787
			c0,13.883,11.298,25.18,25.18,25.18s25.18-11.298,25.18-25.18h67.148V268.59z M419.672,159.475h-67.148
			c0-13.883-11.298-25.18-25.18-25.18s-25.18,11.298-25.18,25.18h-16.787c0-13.883-11.298-25.18-25.18-25.18
			c-13.883,0-25.18,11.298-25.18,25.18h-16.787c0-13.883-11.298-25.18-25.18-25.18s-25.18,11.298-25.18,25.18h-16.787
			c0-13.883-11.298-25.18-25.18-25.18s-25.18,11.298-25.18,25.18H83.934V67.148h41.967c0,13.883,11.298,25.18,25.18,25.18
			s25.18-11.298,25.18-25.18h33.574c0,13.883,11.298,25.18,25.18,25.18s25.18-11.298,25.18-25.18h16.787
			c0,13.883,11.298,25.18,25.18,25.18s25.18-11.298,25.18-25.18h16.787c0,13.883,11.298,25.18,25.18,25.18s25.18-11.298,25.18-25.18
			h25.18V159.475z"/>
	</g>
</g>
<g>
</g>
<g>
</g>
<g>
</g>
<g>
</g>
<g>
</g>
<g>
</g>
<g>
</g>
<g>
</g>
<g>
</g>
<g>
</g>
<g>
</g>
<g>
</g>
<g>
</g>
<g>
</g>
<g>
</g>
</svg>
