<?xml version="1.0" encoding="iso-8859-1"?>
<!-- Generator: Adobe Illustrator 19.0.0, SVG Export Plug-In . SVG Version: 6.00 Build 0)  -->
<svg version="1.1" id="Layer_1" xmlns="http://www.w3.org/2000/svg" xmlns:xlink="http://www.w3.org/1999/xlink" x="0px" y="0px"
	 viewBox="0 0 512.16 512.16" style="enable-background:new 0 0 512.16 512.16;" xml:space="preserve">
<g transform="translate(0 1)">
	<g>
		<g>
			<path d="M42.667,199.613h68.267c5.12,0,8.533-3.413,8.533-8.533s-3.413-8.533-8.533-8.533H42.667
				c-5.12,0-8.533,3.413-8.533,8.533S37.547,199.613,42.667,199.613z"/>
			<path d="M145.067,199.613h68.267c5.12,0,8.533-3.413,8.533-8.533s-3.413-8.533-8.533-8.533h-68.267
				c-5.12,0-8.533,3.413-8.533,8.533S139.947,199.613,145.067,199.613z"/>
			<path d="M42.667,233.747H153.6c5.12,0,8.533-3.413,8.533-8.533c0-5.12-3.413-8.533-8.533-8.533H42.667
				c-5.12,0-8.533,3.413-8.533,8.533C34.133,230.333,37.547,233.747,42.667,233.747z"/>
			<path d="M213.333,216.68h-25.6c-5.12,0-8.533,3.413-8.533,8.533c0,5.12,3.413,8.533,8.533,8.533h25.6
				c5.12,0,8.533-3.413,8.533-8.533C221.867,220.093,218.453,216.68,213.333,216.68z"/>
			<path d="M504.32,110.867c-5.973-7.68-13.653-11.947-23.04-12.8l-20.48-2.482V71.613V54.547c0-18.773-15.36-34.133-34.133-34.133
				H34.133C15.36,20.413,0,35.773,0,54.547v17.067v68.267v187.733c0,15.413,10.357,28.518,24.453,32.718
				c-0.43,17.262,12.631,32.248,30.161,33.842l270.479,30.24c6.572,9.759,14.873,18.28,24.774,24.373l0.853,0.853l7.68,3.413
				c21.333,9.387,41.813,23.04,42.667,28.16c0,4.267,3.413,8.533,8.533,8.533c4.267,0,8.533-3.413,8.533-8.533
				c0.853-5.12,21.333-18.773,42.667-28.16l6.827-3.413l0.853-0.853c32.427-20.48,48.64-69.12,40.107-98.987
				c-1.707-8.533-4.267-16.213-5.973-21.333c-0.853-2.56-1.707-4.267-1.707-5.12c-4.267-19.627,6.827-31.573,7.68-32.427
				c2.56-2.56,3.413-6.827,0.853-10.24l-9.218-13.827L512,135.613C512.853,127.08,510.293,117.693,504.32,110.867z M480.427,113.427
				c4.267,0,8.533,2.56,11.093,5.973s4.267,8.533,3.413,12.8L483.84,251.667c-1.536,0-3.066,0.698-3.98,2.081
				c-0.407,0.385-0.795,0.815-1.14,1.333c-0.119,0.119-0.41,0.475-0.88,0.99c-2.604,2.49-8.187,6.889-17.04,9.25V139.88v-28.16
				L480.427,113.427z M17.067,80.147h424.96v51.2H17.067V80.147z M34.133,37.48H424.96c9.387,0,17.067,7.68,17.067,17.067v8.533
				H17.067v-8.533C17.067,45.16,24.747,37.48,34.133,37.48z M17.067,327.613v-179.2h424.96v120.308
				c-15.764-0.191-21.896-5.589-23.901-8.489c0.006-0.274,0.008-0.562,0.008-0.886v-34.133c0-5.12-3.413-8.533-8.533-8.533H273.067
				c-5.12,0-8.533,3.413-8.533,8.533v76.8c0,5.12,3.413,8.533,8.533,8.533h44.181c0.446,3.825,0.358,8.115-0.661,12.8
				c0,0.853-0.853,3.413-1.707,5.973c-0.853,4.267-2.56,9.387-4.267,15.36H35.84c-0.853,0-1.707,0-1.707,0
				C24.747,344.68,17.067,337,17.067,327.613z M339.627,255.08c-1.707-1.707-4.267-3.413-6.827-3.413
				c-0.185,0-0.368,0.015-0.553,0.024c-0.1-0.005-0.2-0.024-0.301-0.024c-2.56,0-5.12,0.853-6.827,3.413l-17.067,25.6
				c-2.56,2.56-1.707,7.68,0.853,10.24c0,0,0.831,0.895,1.973,2.56H281.6v-59.733h119.467v22.793
				c-0.391,0.631-0.688,1.292-0.853,1.954c0,0-3.376,10.096-25.158,10.234C349.762,268.589,339.627,255.929,339.627,255.08z
				 M57.173,377.107c-8.533-0.853-14.507-7.68-15.36-15.36h265.884c-1.126,13.85,1.542,29.601,7.604,44.325L57.173,377.107z
				 M460.8,435.133l-6.827,3.413C442.88,442.813,421.547,453.053,409.6,465c-11.947-11.947-32.427-22.187-43.52-26.453l-6.827-3.413
				c-8.166-4.804-14.845-11.568-20.094-19.266c-0.095-1.371-0.494-2.657-1.239-3.774c-10.24-17.067-15.36-40.96-11.093-56.32
				c0.436-1.308,0.422-2.838,0.08-4.25c0.153-0.645,0.309-1.285,0.468-1.915c0.808-2.711,1.529-5.357,2.2-7.824
				c0.855-2.788,1.683-5.277,2.372-7.344c0.853-3.413,1.707-5.973,1.707-6.827c0.972-4.47,1.363-8.717,1.335-12.704
				c0.063-7.685-1.457-14.424-3.514-19.94c-1.5-4.396-3.344-7.878-5.209-10.461l8.241-12.362c7.68,5.973,20.48,12.8,40.96,12.8
				c1.096,0,2.155-0.027,3.197-0.067c0.074-0.003,0.146-0.008,0.219-0.011c15.572-0.644,25.104-5.643,30.861-10.88
				c5.993,5.914,16.207,10.958,33.99,10.958c2.337,0,4.666-0.007,6.729-0.281c6.697-0.552,12.581-1.889,17.662-3.589
				c7.726-1.443,11.421-3.362,16.569-7.224c0.462,0.462,0.959,0.849,1.467,1.201l7.066,9.893c-5.12,7.68-11.947,23.04-7.68,42.667
				c0,0,0.853,2.56,2.56,6.827c1.707,5.12,3.413,13.653,5.973,21.333C499.2,376.253,489.813,418.067,460.8,435.133z"/>
			<path d="M460.8,336.147h-29.013l-14.507-29.013c-2.56-5.973-12.8-5.973-15.36,0l-14.507,29.013H358.4
				c-3.413,0-5.973,2.56-7.68,5.12s-0.853,5.973,0.853,8.533l21.333,29.013l-5.973,32.427c0,3.413,0.853,6.827,3.413,8.533
				s5.973,2.56,8.533,0.853l30.72-14.507l30.72,14.507c0.853,0.853,2.56,0.853,3.413,0.853c1.707,0,3.413-0.853,5.12-1.707
				c2.56-1.707,4.267-5.12,3.413-8.533l-5.973-32.427l21.333-29.013c1.707-2.56,2.56-5.12,0.853-8.533
				C466.773,337.853,464.213,336.147,460.8,336.147z M430.08,371.987c-1.707,1.707-2.56,4.267-1.707,6.827l3.413,19.627
				l-18.773-9.387c-0.853-0.853-2.56-0.853-3.413-0.853s-2.56,0-3.413,0l-18.773,9.387l3.413-19.627c0-2.56,0-5.12-1.707-6.827
				l-13.653-17.92h17.067c3.413,0,6.827-1.707,7.68-4.267l9.387-18.773l9.387,17.92c1.707,3.413,4.267,5.12,7.68,5.12h17.067
				L430.08,371.987z"/>
		</g>
	</g>
</g>
<g>
</g>
<g>
</g>
<g>
</g>
<g>
</g>
<g>
</g>
<g>
</g>
<g>
</g>
<g>
</g>
<g>
</g>
<g>
</g>
<g>
</g>
<g>
</g>
<g>
</g>
<g>
</g>
<g>
</g>
</svg>
